# xmcd
#
# Track frame offsets: 
#        150
#        14227
#        31040
#        49752
#        63875
#        78788
#        96009
#        114134
#        129831
#        148720
#        163233
#        179930
#        197194
#        216235
#        238456
#        264761
#        287190
#        308459
#        319742
#        334060
#
# Disc length: 4707 seconds
#
# Revision: 0
# Processed by: cddbd v1.5.2PL0 Copyright (c) Steve Scherf et al.
# Submitted via: ExactAudioCopy v1.0b3
#
DISCID=20126114
DTITLE=Various Artist - Trance Dance Vol. 20 - CD 2
DYEAR=1900
DGENRE=
TTITLE0=Peter Gelderblom Vs. Dan Parker - Trapped (Hi_Tack Radio Mix)
TTITLE1=Mario Lopez - You Came (Michael Mind Radio Cut)
TTITLE2=Cosmic Gate Feat. Denise Rivera - Body Of Conflict (Vocal Edit
TTITLE2=)
TTITLE3=Andrew Spencer - To Be With You (2-4 Grooves Remix Edit)
TTITLE4=DJ Roxx - Jumping and Pumping (Discotronic Radio Edit)
TTITLE5=The Boyscouts - Pussygain (Discotronic Radio Mix)
TTITLE6=Mira - Waiting (Kimera Remix Edit)
TTITLE7=San Danielle - I Dream Of You (Rocco Vs. Bass T Radio Cut)
TTITLE8=DJ Serenity and Daflow - Fuel To The Fire (Radio Mix)
TTITLE9=Akira - I Dream (Radio Mix)
TTITLE10=Dedicated Frequency - Poison Like Sweat (Radio Mix)
TTITLE11=Gambas and Alvaro - Don't Fade Away (Pulsedriver Radio Mix)
TTITLE12=Allure - Somewhere Inside (Andy Duguid Edit)
TTITLE13=Thomas Bronzwaer - Resound (Reaves and Ahorn Radio Mix)
TTITLE14=Onova - Platitude (Original Mix Edit)
TTITLE15=Tom Cloud - Vanilla Sky
TTITLE16=Jesselyn - Celestine
TTITLE17=Sander Van Doorn - Riff (Radio Edit)
TTITLE18=Klubbheads - Baby Wants To Ride
TTITLE19=Club Scene Investigators - Direct Dizko (Sander Van Doorn Rem
TTITLE19=ix Edit)
EXTD=
EXTT0=
EXTT1=
EXTT2=
EXTT3=
EXTT4=
EXTT5=
EXTT6=
EXTT7=
EXTT8=
EXTT9=
EXTT10=
EXTT11=
EXTT12=
EXTT13=
EXTT14=
EXTT15=
EXTT16=
EXTT17=
EXTT18=
EXTT19=
PLAYORDER=
